<svg width="131" height="27" viewBox="0 0 131 27" fill="none" xmlns="http://www.w3.org/2000/svg">
<path d="M95.3773 22.2292C95.3773 24.3862 93.6287 26.1348 91.4717 26.1348C89.3147 26.1348 87.5662 24.3862 87.5662 22.2292C87.5662 20.0722 89.3147 18.3237 91.4717 18.3237C93.6287 18.3237 95.3773 20.0722 95.3773 22.2292Z" fill="#3E89C0"/>
<path d="M0.97998 23.2447H1.95637C2.47711 23.2447 2.84163 23.1405 3.04992 22.9322C3.28426 22.6979 3.40142 22.3204 3.40142 21.7996V11.7623C3.40142 11.2416 3.29728 10.8771 3.08898 10.6688C2.88068 10.4344 2.51617 10.3173 1.99543 10.3173H1.17526V7.38811H6.17437L6.4087 10.0048C7.29396 8.88524 8.29639 8.07809 9.41598 7.58339C10.5616 7.06265 11.9416 6.80228 13.5559 6.80228C17.7218 6.80228 19.8048 8.96335 19.8048 13.2855V21.7996C19.8048 22.3204 19.9089 22.6979 20.1172 22.9322C20.3515 23.1405 20.7291 23.2447 21.2498 23.2447H22.3434V26.1348H15.6258V13.3246C15.6258 12.0227 15.3524 11.0854 14.8056 10.5126C14.2589 9.9137 13.3736 9.61428 12.1499 9.61428C10.822 9.61428 9.72842 9.99182 8.8692 10.7469C8.00998 11.502 7.58037 12.5565 7.58037 13.9104V21.7996C7.58037 22.3204 7.6715 22.6979 7.85376 22.9322C8.06205 23.1405 8.41355 23.2447 8.90826 23.2447H9.9237V26.1348H0.97998V23.2447Z" fill="#4D4D4D"/>
<path d="M26.5824 0.826778H30.9957V4.41989H26.5824V0.826778ZM24.1219 23.2447H25.2545C25.7753 23.2447 26.1398 23.1275 26.3481 22.8932C26.5824 22.6588 26.6996 22.2813 26.6996 21.7606V11.7233C26.6996 11.2286 26.5824 10.8771 26.3481 10.6688C26.1398 10.4344 25.7753 10.3173 25.2545 10.3173H24.1219V7.38811H30.8785V21.7996C30.8785 22.2943 30.9957 22.6588 31.23 22.8932C31.4644 23.1275 31.8289 23.2447 32.3236 23.2447H33.4562V26.1348H24.1219V23.2447Z" fill="#4D4D4D"/>
<path d="M35.6494 23.2447H36.6258C37.1465 23.2447 37.5111 23.1405 37.7194 22.9322C37.9537 22.6979 38.0709 22.3204 38.0709 21.7996V11.7233C38.0709 11.2286 37.9667 10.8641 37.7584 10.6297C37.5501 10.3954 37.1986 10.2782 36.7039 10.2782H35.8837V7.38811H41.2734L41.8202 9.53617C42.3409 8.72902 43.0049 8.16922 43.812 7.85678C44.6452 7.54433 45.6216 7.38811 46.7412 7.38811H48.5377V10.2782H46.3506C44.8665 10.2782 43.812 10.6167 43.1871 11.2937C42.5622 11.9446 42.2498 12.96 42.2498 14.34V21.7996C42.2498 22.3204 42.3539 22.6979 42.5622 22.9322C42.7705 23.1405 43.122 23.2447 43.6167 23.2447H44.5931V26.1348H35.6494V23.2447Z" fill="#4D4D4D"/>
<path d="M50.7148 23.2447H51.6912C52.2119 23.2447 52.5764 23.1405 52.7847 22.9322C53.0191 22.6979 53.1362 22.3204 53.1362 21.7996V11.7233C53.1362 11.2286 53.0191 10.8771 52.7847 10.6688C52.5764 10.4344 52.2119 10.3173 51.6912 10.3173H50.9101V7.38811H55.792L56.0654 10.0439C56.7684 8.95033 57.6406 8.14318 58.6821 7.62244C59.7496 7.07567 61.0385 6.80228 62.5486 6.80228C63.6942 6.80228 64.6837 7.06265 65.5168 7.58339C66.35 8.10413 66.9749 8.84619 67.3915 9.80956C68.0424 8.76807 68.8366 8.013 69.7739 7.54433C70.7373 7.04963 71.935 6.80228 73.367 6.80228C75.502 6.80228 77.0382 7.33604 77.9756 8.40356C78.9389 9.47107 79.4206 11.0724 79.4206 13.2074V21.7996C79.4206 22.2943 79.5378 22.6588 79.7721 22.8932C80.0064 23.1275 80.371 23.2447 80.8657 23.2447H81.9592V26.1348H75.3198V13.2074C75.3198 11.9055 75.0724 10.9812 74.5777 10.4344C74.083 9.88767 73.2498 9.61428 72.0782 9.61428C70.8805 9.61428 69.9301 9.95276 69.2271 10.6297C68.5502 11.3067 68.2117 12.2961 68.2117 13.5979V21.7996C68.2117 22.3204 68.3028 22.6979 68.4851 22.9322C68.6934 23.1405 69.0449 23.2447 69.5396 23.2447H70.5941V26.1348H64.3452V13.3246C64.3452 12.0487 64.0978 11.1114 63.6031 10.5126C63.1084 9.9137 62.3273 9.61428 61.2598 9.61428C59.9579 9.61428 58.9555 9.9788 58.2525 10.7078C57.5495 11.4369 57.198 12.5044 57.198 13.9104V21.7996C57.198 22.3204 57.2891 22.6979 57.4714 22.9322C57.6797 23.1405 58.0312 23.2447 58.5259 23.2447H59.5804V26.1348H50.7148V23.2447Z" fill="#4D4D4D"/>
<path d="M107.198 26.7206C105.115 26.7206 103.527 26.265 102.433 25.3537C101.366 24.4424 100.832 23.1535 100.832 21.4872C100.832 19.6125 101.418 18.2456 102.59 17.3863C103.787 16.5011 105.506 15.9803 107.745 15.8241L113.213 15.4726V13.0902C113.213 11.8665 112.952 10.9812 112.432 10.4344C111.911 9.88767 111.026 9.61428 109.776 9.61428C108.917 9.61428 108.201 9.69239 107.628 9.84861C107.081 9.9788 106.573 10.2001 106.105 10.5126V11.9186H102.472V8.83317C104.659 7.47924 107.12 6.80228 109.854 6.80228C114.853 6.80228 117.353 9.01543 117.353 13.4417V21.9949C117.353 22.5156 117.444 22.8932 117.626 23.1275C117.834 23.3618 118.16 23.479 118.602 23.479H119.462V26.1348H114.97L114.462 23.6743C113.629 24.7418 112.653 25.5229 111.533 26.0176C110.44 26.4863 108.995 26.7206 107.198 26.7206ZM108.135 23.9086C109.698 23.9086 110.934 23.5701 111.846 22.8932C112.757 22.2162 113.213 21.1877 113.213 19.8078V17.9331L108.057 18.3237C106.781 18.4018 105.896 18.6752 105.402 19.1438C104.907 19.5865 104.659 20.3025 104.659 21.2919C104.659 22.1511 104.933 22.802 105.48 23.2447C106.026 23.6873 106.912 23.9086 108.135 23.9086Z" fill="#4D4D4D"/>
<path d="M121.666 23.2447H122.798C123.319 23.2447 123.684 23.1275 123.892 22.8932C124.126 22.6588 124.243 22.2813 124.243 21.7606V4.61517C124.243 4.12046 124.126 3.76896 123.892 3.56067C123.684 3.32633 123.319 3.20917 122.798 3.20917H121.666V0.279999H128.422V21.7996C128.422 22.2943 128.54 22.6588 128.774 22.8932C129.008 23.1275 129.373 23.2447 129.867 23.2447H131V26.1348H121.666V23.2447Z" fill="#4D4D4D"/>
</svg>
